<?xml version="1.0" encoding="utf-8"?>
<!-- Generator: Adobe Illustrator 16.0.0, SVG Export Plug-In . SVG Version: 6.00 Build 0)  -->
<!DOCTYPE svg PUBLIC "-//W3C//DTD SVG 1.1//EN" "http://www.w3.org/Graphics/SVG/1.1/DTD/svg11.dtd">
<svg version="1.1" id="Layer_1" xmlns="http://www.w3.org/2000/svg" xmlns:xlink="http://www.w3.org/1999/xlink" x="0px" y="0px"
	 width="120px" height="21px" viewBox="0 0 120 21" enable-background="new 0 0 120 21" xml:space="preserve">
<path fill="#1C71F6" d="M16.265,0.769c-2.437-0.454-4.912-0.684-7.352-0.684c-2.282,0-4.595,0.202-6.875,0.599
	C1.583,0.787,1.12,1.26,1.029,1.718C0.892,2.433,0.765,3.146,0.652,3.835C0.619,4.048,0.672,4.23,0.809,4.36
	C0.948,4.493,1.15,4.548,1.405,4.522c2.89-0.334,5.787-0.503,8.612-0.503c1.008,0,2.026,0.022,3.026,0.063
	c0.356,0.025,0.66,0.329,0.68,0.676c0.165,3.769,0.168,7.59,0.008,11.361c-0.02,0.35-0.322,0.655-0.675,0.684
	c-1.359,0.076-2.738,0.114-4.098,0.114c-1.262,0-2.542-0.033-3.806-0.098c-0.356-0.024-0.663-0.33-0.685-0.683
	c-0.054-0.972-0.099-1.941-0.133-2.886c-0.006-0.168,0.058-0.326,0.179-0.446c0.118-0.111,0.276-0.174,0.447-0.174
	c1.396,0.031,2.813,0.051,4.228,0.056c0.5-0.002,0.909-0.402,0.912-0.894c0.001-0.809,0.001-1.619,0-2.428
	C10.1,8.876,9.689,8.477,9.187,8.476c-2.69,0.02-5.472,0.087-8.263,0.202C0.417,8.704,0.003,9.09,0,9.539
	c0.058,3.143,0.364,6.416,0.908,9.725c0.087,0.453,0.548,0.926,1.006,1.032h0.002c2.222,0.378,4.483,0.571,6.721,0.571
	c2.49,0,5.026-0.239,7.536-0.71c0.802-0.195,0.848-0.25,0.872-0.348l0.016-0.03c0.069-0.079,0.17-0.289,0.264-0.831
	c0.767-5.677,0.75-11.445-0.05-17.142C17.194,1.358,16.731,0.882,16.265,0.769z"/>
<path fill="#1C71F6" d="M118.896,8.677c-2.791-0.114-5.572-0.182-8.266-0.202c-0.5,0.001-0.906,0.4-0.908,0.89
	c-0.002,0.809-0.002,1.619,0,2.428c0.002,0.491,0.412,0.892,0.914,0.894c1.414-0.005,2.834-0.024,4.215-0.055l0,0
	c0.186,0,0.34,0.062,0.455,0.173c0.123,0.118,0.188,0.276,0.182,0.445c-0.035,0.976-0.08,1.946-0.135,2.884
	c-0.02,0.355-0.324,0.661-0.68,0.686c-1.264,0.064-2.543,0.098-3.805,0.098c-1.361,0-2.738-0.038-4.096-0.114
	c-0.355-0.028-0.66-0.333-0.68-0.681c-0.16-3.772-0.158-7.593,0.008-11.36c0.02-0.351,0.32-0.654,0.672-0.678
	c1.008-0.042,2.031-0.064,3.047-0.064c2.83,0,5.734,0.17,8.631,0.507c0.227,0.023,0.428-0.035,0.564-0.166
	c0.137-0.129,0.191-0.312,0.156-0.526c-0.111-0.675-0.232-1.368-0.377-2.118c-0.09-0.455-0.557-0.929-1.021-1.035
	c-2.271-0.395-4.58-0.595-6.859-0.595c-2.443,0-4.924,0.23-7.369,0.686c-0.459,0.111-0.916,0.589-0.998,1.045
	c-0.799,5.693-0.816,11.461-0.047,17.139c0.092,0.536,0.195,0.745,0.266,0.824l0.014,0.028c0.027,0.106,0.111,0.165,0.885,0.352
	c2.504,0.468,5.033,0.707,7.521,0.707c2.232,0,4.49-0.192,6.707-0.57l0.006-0.003l0.027-0.002c0.441-0.103,0.904-0.576,0.992-1.032
	c0.543-3.314,0.85-6.588,0.906-9.728C119.82,9.088,119.404,8.704,118.896,8.677z"/>
<path fill="#1C71F6" d="M38.17,0.048h-3.087c-0.318,0-0.597,0.285-0.597,0.608v7.927h-8.211V0.656c0-0.324-0.28-0.608-0.597-0.608
	h-3.116c-0.318,0-0.597,0.285-0.597,0.608v19.603c0,0.323,0.279,0.608,0.597,0.608h3.116c0.317,0,0.597-0.285,0.597-0.608v-7.632
	h8.211v7.632c0,0.323,0.279,0.608,0.597,0.608h3.087c0.318,0,0.597-0.285,0.597-0.608V0.656C38.768,0.333,38.489,0.048,38.17,0.048z
	"/>
<path fill="#1C71F6" d="M56.834,0.078H42.463c-0.324,0-0.608,0.284-0.608,0.608v2.821c0,0.324,0.284,0.607,0.608,0.607h4.946V20.26
	c0,0.323,0.284,0.607,0.609,0.607h3.203c0.323,0,0.609-0.284,0.609-0.607V4.115h5.004c0.324,0,0.608-0.284,0.608-0.607V0.686
	C57.443,0.362,57.159,0.078,56.834,0.078z"/>
<path fill="#1C71F6" d="M75.898,0.032h-3.145c-0.316,0-0.598,0.282-0.598,0.604v11.987c0,1.107-0.697,4.266-3.787,4.266
	c-3.17,0-3.816-3.364-3.816-4.266V0.636c0-0.322-0.281-0.604-0.598-0.604h-3.117c-0.318,0-0.597,0.282-0.597,0.604v11.987
	c0,3.97,2.543,8.244,8.127,8.244s8.127-4.274,8.127-8.244V0.636C76.496,0.314,76.217,0.032,75.898,0.032z"/>
<path fill="#1C71F6" d="M97.355,0.07H94.24c-0.318,0-0.598,0.279-0.598,0.598v11.095L82.371,0.378
	C82.16,0.165,81.9,0.059,81.604,0.059c-0.266,0-0.482,0.229-0.482,0.51v19.702c0,0.317,0.279,0.597,0.598,0.597h3.115
	c0.318,0,0.598-0.279,0.598-0.597V9.277L85.553,9.4L96.83,20.608c0.199,0.164,0.426,0.251,0.67,0.251
	c0.258,0,0.453-0.195,0.453-0.454V0.668C97.953,0.35,97.672,0.07,97.355,0.07z"/>
</svg>
