<?xml version="1.0" encoding="utf-8"?>
<!-- Generator: Adobe Illustrator 16.0.0, SVG Export Plug-In . SVG Version: 6.00 Build 0)  -->
<!DOCTYPE svg PUBLIC "-//W3C//DTD SVG 1.1//EN" "http://www.w3.org/Graphics/SVG/1.1/DTD/svg11.dtd">
<svg version="1.1" id="Layer_1" xmlns="http://www.w3.org/2000/svg" xmlns:xlink="http://www.w3.org/1999/xlink" x="0px" y="0px"
	 width="40px" height="40px" viewBox="0 0 40 40" enable-background="new 0 0 40 40" xml:space="preserve">
<g>
	<path fill="#1C71F6" d="M28.733,17.292h-1.898h-2.539h-8.428h-2.702h-1.902c-0.416,0-0.758,0.341-0.758,0.766v12.411
		c0,0.423,0.342,0.766,0.758,0.766h17.47c0.415,0,0.761-0.343,0.761-0.766V18.058C29.494,17.633,29.148,17.292,28.733,17.292z"/>
	<path fill="#1C71F6" d="M15.868,13.606c0,0.006,0.002,0.013,0.002,0.019c0.015-2.304,1.907-4.178,4.211-4.178
		s4.194,1.874,4.213,4.178c0-0.006,0.002-0.013,0.002-0.019v3.686h2.539v-3.686h-0.001c-0.03-3.784-3.078-6.841-6.836-6.841
		c-3.755,0-6.804,3.057-6.83,6.841h-0.002v3.686h2.702V13.606z"/>
</g>
</svg>
