<?xml version="1.0" encoding="utf-8"?>
<!-- Generator: Adobe Illustrator 16.0.0, SVG Export Plug-In . SVG Version: 6.00 Build 0)  -->
<!DOCTYPE svg PUBLIC "-//W3C//DTD SVG 1.1//EN" "http://www.w3.org/Graphics/SVG/1.1/DTD/svg11.dtd">
<svg version="1.1" id="Layer_1" xmlns="http://www.w3.org/2000/svg" xmlns:xlink="http://www.w3.org/1999/xlink" x="0px" y="0px"
	 width="40px" height="40px" viewBox="0 0 40 40" enable-background="new 0 0 40 40" xml:space="preserve">
<path fill-rule="evenodd" clip-rule="evenodd" fill="#1C71F6" d="M23.021,7.527c0.979,1.867,2.598,5.555,4.025,6.061
	c0.167-0.136,0.332-0.272,0.501-0.407c0.214-3.379,5.367-4.613,6.286-0.14c0.942,4.565-3.272,2.826-5.174,4.193
	c1.053,2.077,2.173,4.341,3.226,6.417c-1.516,0.808-3.988,2.894-5.787,3.203c-0.334-0.058-0.317-0.433-0.436-0.583
	c0.602-3.816-1.989-6.695-5.663-2.816c-3.04,3.213,3.133,4.829,2.791,5.736c-1.812,1.118-3.68,2.167-5.492,3.282
	c-1.251-1.996-2.523-4.082-3.775-6.076c-0.249,0.112-0.501,0.226-0.748,0.336c-0.77,2.717-4.816,5.563-6.464,0.572
	c-1.349-4.081,2.462-3.894,4.692-4.124c0.143-0.122,0.283-0.239,0.423-0.364c-1.11-2.116-2.335-4.272-3.445-6.393
	c1.919-1.11,3.889-2.328,5.81-3.44c1.523,1.6-0.825,5.377,3.138,5.292c2.51-0.056,4.803-3.304,3.055-5.561
	c-0.969-0.554-2.348-0.488-2.66-1.218c-0.314-0.73,0.079-0.485,0.115-0.729C19.323,9.718,21.14,8.579,23.021,7.527z"/>
</svg>
