<?xml version="1.0" encoding="utf-8"?>
<!-- Generator: Adobe Illustrator 16.0.0, SVG Export Plug-In . SVG Version: 6.00 Build 0)  -->
<!DOCTYPE svg PUBLIC "-//W3C//DTD SVG 1.1//EN" "http://www.w3.org/Graphics/SVG/1.1/DTD/svg11.dtd">
<svg version="1.1" id="Layer_1" xmlns="http://www.w3.org/2000/svg" xmlns:xlink="http://www.w3.org/1999/xlink" x="0px" y="0px"
	 width="40px" height="40px" viewBox="0 0 40 40" enable-background="new 0 0 40 40" xml:space="preserve">
<g>
	<path fill="#1C71F6" d="M33.559,11.743c0-2.417-1.959-4.376-4.377-4.376s-4.379,1.959-4.379,4.376c0,2.037,1.397,3.734,3.283,4.223
		v3.438h-3.437c-0.489-1.885-2.187-3.283-4.224-3.283c-2.035,0-3.733,1.398-4.223,3.283h-5.624v5.622
		c-1.885,0.49-3.283,2.187-3.283,4.224c0,2.42,1.96,4.379,4.38,4.379c2.417,0,4.376-1.959,4.376-4.379
		c0-2.037-1.399-3.735-3.285-4.224v-3.434h3.437c0.489,1.885,2.185,3.282,4.223,3.282c2.037,0,3.736-1.397,4.224-3.282h5.624v-5.626
		C32.158,15.479,33.559,13.781,33.559,11.743z M13.863,29.249c0,1.209-0.98,2.189-2.188,2.189c-1.21,0-2.191-0.98-2.191-2.189
		c0-1.208,0.981-2.188,2.191-2.188C12.883,27.061,13.863,28.041,13.863,29.249z M20.426,22.687c-1.208,0-2.188-0.981-2.188-2.189
		c0-1.209,0.98-2.189,2.188-2.189c1.21,0,2.189,0.98,2.189,2.189C22.615,21.705,21.636,22.687,20.426,22.687z M29.182,13.933
		c-1.21,0-2.19-0.981-2.19-2.189c0-1.209,0.98-2.188,2.19-2.188c1.208,0,2.188,0.979,2.188,2.188
		C31.37,12.951,30.39,13.933,29.182,13.933z"/>
</g>
</svg>
