<?xml version="1.0" encoding="utf-8"?>
<!-- Generator: Adobe Illustrator 16.0.0, SVG Export Plug-In . SVG Version: 6.00 Build 0)  -->
<!DOCTYPE svg PUBLIC "-//W3C//DTD SVG 1.1//EN" "http://www.w3.org/Graphics/SVG/1.1/DTD/svg11.dtd">
<svg version="1.1" id="Layer_1" xmlns="http://www.w3.org/2000/svg" xmlns:xlink="http://www.w3.org/1999/xlink" x="0px" y="0px"
	 width="40px" height="40px" viewBox="0 0 40 40" enable-background="new 0 0 40 40" xml:space="preserve">
<path fill="#1C71F6" d="M28.367,8.906c-2.785-0.519-5.615-0.782-8.404-0.782c-2.608,0-5.25,0.229-7.856,0.685
	c-0.521,0.118-1.051,0.66-1.155,1.182c-0.155,0.818-0.3,1.634-0.43,2.421c-0.037,0.242,0.023,0.45,0.18,0.6
	c0.158,0.151,0.391,0.215,0.681,0.187c3.304-0.384,6.615-0.576,9.842-0.576c1.154,0,2.316,0.023,3.459,0.072
	c0.406,0.029,0.756,0.375,0.777,0.772c0.189,4.308,0.193,8.675,0.01,12.983c-0.021,0.399-0.367,0.75-0.771,0.781
	c-1.553,0.088-3.129,0.132-4.683,0.132c-1.441,0-2.905-0.039-4.35-0.113c-0.407-0.026-0.756-0.375-0.782-0.778
	c-0.062-1.11-0.113-2.22-0.15-3.299c-0.008-0.191,0.064-0.375,0.204-0.508c0.134-0.129,0.314-0.2,0.51-0.2
	c1.597,0.034,3.216,0.056,4.831,0.062c0.573-0.001,1.042-0.459,1.043-1.02c0.002-0.927,0.002-1.852,0-2.774
	c-0.002-0.561-0.471-1.018-1.046-1.018c-3.074,0.021-6.253,0.099-9.443,0.229c-0.579,0.029-1.052,0.471-1.056,0.986
	c0.066,3.593,0.417,7.332,1.038,11.112c0.1,0.518,0.626,1.06,1.149,1.179h0.004c2.539,0.435,5.124,0.655,7.681,0.655
	c2.847,0,5.746-0.273,8.613-0.81c0.918-0.226,0.973-0.289,0.998-0.398l0.018-0.035c0.078-0.092,0.195-0.331,0.303-0.95
	c0.877-6.487,0.857-13.08-0.059-19.592C29.429,9.579,28.9,9.033,28.367,8.906z"/>
</svg>
