<?xml version="1.0" encoding="utf-8"?>
<!-- Generator: Adobe Illustrator 16.0.0, SVG Export Plug-In . SVG Version: 6.00 Build 0)  -->
<!DOCTYPE svg PUBLIC "-//W3C//DTD SVG 1.1//EN" "http://www.w3.org/Graphics/SVG/1.1/DTD/svg11.dtd">
<svg version="1.1" id="Layer_1" xmlns="http://www.w3.org/2000/svg" xmlns:xlink="http://www.w3.org/1999/xlink" x="0px" y="0px"
	 width="40px" height="40px" viewBox="0 0 40 40" enable-background="new 0 0 40 40" xml:space="preserve">
<path fill-rule="evenodd" clip-rule="evenodd" fill="#1C71F6" d="M24.494,31.761c-1.006-2.54-2.016-5.085-3.021-7.621
	c2.646-1.619,3.065-4.285,1.36-6.239c-1.482-1.698-4.104-1.684-5.626-0.032c-1.727,1.874-1.228,4.301,1.348,6.274
	c-1,2.527-2.01,5.075-3.018,7.619c-5.124-1.696-8.539-7.653-7.623-13.179c0.998-6.012,6.059-10.342,12.089-10.344
	c5.982-0.004,11.2,4.404,12.086,10.21C32.972,24.222,29.693,30.025,24.494,31.761z"/>
</svg>
